Coordinates
nRows=9
nColumns=38

# SIMM Motion File Header:
name Coordinates
datacolumns 38
datarows 9
otherdata 1
range 1.78499999999999990000 1.79299999999999990000

Units are S.I. units (second, meters, Newtons, ...)
Angles are in degrees.

endheader
time	pelvis_tilt	pelvis_list	pelvis_rotation	pelvis_tx	pelvis_ty	pelvis_tz	hip_flexion_r	hip_adduction_r	hip_rotation_r	knee_angle_r	ankle_angle_r	subtalar_angle_r	mtp_angle_r	hip_flexion_l	hip_adduction_l	hip_rotation_l	knee_angle_l	ankle_angle_l	subtalar_angle_l	mtp_angle_l	lumbar_extension	lumbar_bending	lumbar_rotation	arm_flex_r	arm_add_r	arm_rot_r	elbow_flex_r	pro_sup_r	wrist_flex_r	wrist_dev_r	arm_flex_l	arm_add_l	arm_rot_l	elbow_flex_l	pro_sup_l	wrist_flex_l	wrist_dev_l
      1.78499999999999990000	      0.22357314624402447000	      2.05878770480952240000	      1.31258187530785290000	      0.77698881994612568000	      1.00628058135644150000	     -0.29828105410599559000	     25.44395196109822900000	      1.31104352488796280000	      2.63859297333269760000	    -12.04099000143520100000	      4.49560835649268590000	      0.00000000000000000000	      0.00000000000000000000	    -15.99235617639584600000	      6.08798402552952120000	      6.75726213047167600000	    -52.47135865842507500000	    -28.59831692501194300000	      0.00000000000000000000	      0.00000000000000000000	    -12.13669419584860700000	     -3.08901620493586600000	    -11.54738676868704400000	    -39.14602354326684300000	    -14.46567560953405400000	    -11.60097175659581700000	     93.69783913048885900000	     70.08452588499896800000	      0.00000000000000000000	      0.00000000000000000000	      1.50683413975550760000	    -24.06345331822891600000	     11.79038836385133700000	    111.72768818068070000000	     97.46375748164067000000	      0.00000000000000000000	      0.00000000000000000000
      1.78599999999999980000	      0.36289350413782395000	      2.01640761954679260000	      1.34374904477986170000	      0.77681283469699336000	      1.00602503322789700000	     -0.29828301692373460000	     25.31639338382884900000	      1.36724132481198610000	      2.56067266444278060000	    -12.31911929412089000000	      4.50346922409081700000	      0.00000000000000000329	     -0.00000000000000001185	    -15.85684124210317600000	      6.03490964447719500000	      6.71057166843538330000	    -53.19143889568111700000	    -28.58987618710358100000	     -0.00000000000000000103	      0.00000000000000000135	    -12.33227087460980100000	     -3.01169593544240400000	    -11.47913237605185800000	    -39.02489841236413100000	    -14.49392296034315000000	    -11.59148099429700100000	     93.72948631809487100000	     70.05066269125963200000	     -0.00000000000000000014	      0.00000000000000000033	      1.53999784238515610000	    -24.06380378711742600000	     11.91939838304814400000	    111.64465786308203000000	     97.41787049570871200000	      0.00000000000000000006	      0.00000000000000000056
      1.78699999999999990000	      0.50493851541609069000	      1.97281461018489450000	      1.37408292506752790000	      0.77663668398364794000	      1.00576483736760140000	     -0.29828334005592200000	     25.18593545937347900000	      1.42562946814259070000	      2.48583962106573700000	    -12.60652455110248300000	      4.52057864493392980000	      0.00000000000000001015	     -0.00000000000000002144	    -15.72292003653007000000	      5.97919320341660840000	      6.65948835489634220000	    -53.90884460022049000000	    -28.58344120834812300000	      0.00000000000000000029	      0.00000000000000000620	    -12.53066883241356800000	     -2.93298053345106440000	    -11.40939025570855300000	    -38.90233976510969400000	    -14.52522876975856500000	    -11.58068742920472100000	     93.76186882760241300000	     70.01514013018750400000	      0.00000000000000000190	      0.00000000000000000037	      1.57113410115642500000	    -24.06325577468980000000	     12.04617403561913700000	    111.56010675112329000000	     97.37026908208622400000	     -0.00000000000000000015	      0.00000000000000000146
      1.78799999999999980000	      0.64946144326842870000	      1.92785811702585420000	      1.40331332516615540000	      0.77645986798889399000	      1.00550013164494680000	     -0.29828187057137617000	     25.05312010019945400000	      1.48624531496229430000	      2.41302095370241740000	    -12.90332146613089200000	      4.52846431287076710000	      0.00000000000000000958	     -0.00000000000000003551	    -15.59028903594177600000	      5.92073012902744720000	      6.60379049481419500000	    -54.62347949541746300000	    -28.57883200509529700000	      0.00000000000000000244	      0.00000000000000000652	    -12.73162528554417200000	     -2.85273780163279730000	    -11.33784245274965700000	    -38.77826089055248800000	    -14.55966747990168900000	    -11.56865499644437300000	     93.79490987210721200000	     69.97793951764855100000	      0.00000000000000000219	      0.00000000000000000055	      1.60026195507492040000	    -24.06168573845019400000	     12.17068843990763600000	    111.47390979410372000000	     97.32116643630125500000	     -0.00000000000000000016	      0.00000000000000000099
      1.78899999999999990000	      0.79675629324180908000	      1.88177272357967800000	      1.43178332819826150000	      0.77628258597284527000	      1.00523143211625210000	     -0.29827914315114834000	     24.91735680219792900000	      1.54868938995373260000	      2.34205140110773200000	    -13.20876696422459200000	      4.53048977828636890000	      0.00000000000000001025	     -0.00000000000000004288	    -15.45933389671738000000	      5.85964761530525280000	      6.54401391116903670000	    -55.33510965310167500000	    -28.57590884055463900000	      0.00000000000000000440	      0.00000000000000000630	    -12.93544314271094500000	     -2.77117327277688960000	    -11.26486004274648400000	    -38.65266325454182100000	    -14.59717841304673800000	    -11.55542314722512200000	     93.82867602941510700000	     69.93906048691963000000	     -0.00000000000000000210	      0.00000000000000000134	      1.62741526292615870000	    -24.05922317108194300000	     12.29294065810319100000	    111.38616777124174000000	     97.27063837516314500000	      0.00000000000000000009	      0.00000000000000000047
      1.78999999999999980000	      0.94692458700413995000	      1.83471025657260770000	      1.45965271290364320000	      0.77610491241065704000	      1.00495900551522350000	     -0.29827545194476152000	     24.77839035730674100000	      1.61269871391999800000	      2.27268796127516430000	    -13.52232025311234900000	      4.52684184332325220000	      0.00000000000000001862	     -0.00000000000000004823	    -15.33021264078970300000	      5.79604557930074100000	      6.48048745265489060000	    -56.04353946682953600000	    -28.57445829380494500000	      0.00000000000000000590	      0.00000000000000000850	    -13.14220636595960900000	     -2.68843104317641890000	    -11.19061605008785200000	    -38.52554998592828600000	    -14.63773181516912000000	    -11.54103833528893800000	     93.86320743822395200000	     69.89849899774608800000	     -0.00000000000000000963	      0.00000000000000000245	      1.65259901255444140000	    -24.05593926804074900000	     12.41291837989431600000	    111.29694073762053000000	     97.21880295719796500000	      0.00000000000000000052	      0.00000000000000000034
      1.79099999999999990000	      1.09989737467816600000	      1.78682513051702510000	      1.48701007381060980000	      0.77592690503094264000	      1.00468280848105710000	     -0.29827097937710084000	     24.63618842184746100000	      1.67804463383143520000	      2.20477766761795110000	    -13.84350491341445100000	      4.51835431383446110000	      0.00000000000000002620	     -0.00000000000000005370	    -15.20289012727285400000	      5.73005732813059240000	      6.41347756858412410000	    -56.74861661316105500000	    -28.57420643149258800000	      0.00000000000000000946	      0.00000000000000000893	    -13.35180193196700700000	     -2.60467753208951610000	    -11.11521430268654400000	    -38.39694762403736000000	    -14.68130495591350400000	    -11.52554570086926400000	     93.89853316533670100000	     69.85625542828545100000	     -0.00000000000000001875	      0.00000000000000000420	      1.67577506661629450000	    -24.05188990395564700000	     12.53059695646188500000	    111.20628487832616000000	     97.16579570576981000000	      0.00000000000000000106	      0.00000000000000000019
      1.79199999999999980000	      1.25541311501662660000	      1.73826067085496280000	      1.51386444836371050000	      0.77574857464028935000	      1.00440247745958680000	     -0.29826579276046428000	     24.49098464967040600000	      1.74454033023073120000	      2.13821173833963220000	    -14.17195000931385900000	      4.50567903659275170000	      0.00000000000000002772	     -0.00000000000000005581	    -15.07710847898289500000	      5.66183843783304130000	      6.34317369171131770000	    -57.45024510569132300000	    -28.57481878509375400000	      0.00000000000000001588	      0.00000000000000001099	    -13.56390069621004500000	     -2.52008832100507400000	    -11.03867953113241800000	    -38.26690092596027200000	    -14.72788467071383600000	    -11.50898924008806800000	     93.93466369005092500000	     69.81233531747336900000	     -0.00000000000000002831	      0.00000000000000000606	      1.69686556630321530000	    -24.04710830962916600000	     12.64593846824218900000	    111.11424099389434000000	     97.11177486165543400000	      0.00000000000000000106	      0.00000000000000000006
      1.79299999999999990000	      1.41304380126023020000	      1.68915029076233010000	      1.54016217215177000000	      0.77556989606808424000	      1.00411737062242490000	     -0.29825986703175306000	     24.34323818828861600000	      1.81203247674161450000	      2.07291995413363630000	    -14.50737239741081400000	      4.48942636703283960000	      0.00000000000000004013	     -0.00000000000000005625	    -14.95241788409586700000	      5.59156227130315920000	      6.26970594329601470000	    -58.14838227802847100000	    -28.57590804392851100000	      0.00000000000000002065	      0.00000000000000001417	    -13.77798915835231800000	     -2.43484685007481880000	    -10.96097517524046900000	    -38.13547029764956200000	    -14.77746477000553100000	    -11.49141115466849800000	     93.97159308033541000000	     69.76674949764083100000	     -0.00000000000000003806	      0.00000000000000001036	      1.71576063970678390000	    -24.04160948281182200000	     12.75889344584613600000	    111.02083488804331000000	     97.05691737841696900000	      0.00000000000000000121	     -0.00000000000000000035
